<svg viewBox="0 0 64 64" fill="none" xmlns="http://www.w3.org/2000/svg">
  <defs>
    <linearGradient id="sweep" x1="29" y1="30" x2="52" y2="11" gradientUnits="userSpaceOnUse">
      <stop offset="0%" stop-color="#c4b5fd" stop-opacity="0.55"/>
      <stop offset="100%" stop-color="#c4b5fd" stop-opacity="0"/>
    </linearGradient>
    <radialGradient id="core-glow" cx="29" cy="30" r="8" gradientUnits="userSpaceOnUse">
      <stop offset="0%" stop-color="#7c3aed" stop-opacity="0.08"/>
      <stop offset="100%" stop-color="#7c3aed" stop-opacity="0"/>
    </radialGradient>
  </defs>
  <path d="M 10 44 A 25 25 0 0 1 54 24" stroke="#7c3aed" stroke-width="0.35" opacity="0.07" fill="none"/>
  <circle cx="29" cy="30" r="10" fill="url(#core-glow)"/>
  <circle cx="29" cy="30" r="4.2" fill="#c4b5fd"/>
  <circle cx="22" cy="8" r="2.8" fill="#c4b5fd" opacity="0.8"/>
  <circle cx="16" cy="50" r="2.5" fill="#c4b5fd" opacity="0.65"/>
  <circle cx="52" cy="26" r="2" fill="#c4b5fd" opacity="0.5"/>
  <circle cx="10" cy="28" r="1.6" fill="#c4b5fd" opacity="0.35"/>
  <circle cx="46" cy="48" r="1.6" fill="#c4b5fd" opacity="0.38"/>
  <circle cx="42" cy="10" r="0.9" fill="#c4b5fd" opacity="0.15"/>
  <circle cx="36" cy="56" r="1" fill="#c4b5fd" opacity="0.12"/>
  <circle cx="56" cy="42" r="0.7" fill="#c4b5fd" opacity="0.1"/>
  <path d="M 29 30 Q 24 16, 22 8" stroke="#7c3aed" stroke-width="0.55" opacity="0.2" fill="none"/>
  <path d="M 29 30 Q 20 42, 16 50" stroke="#7c3aed" stroke-width="0.55" opacity="0.2" fill="none"/>
  <path d="M 29 30 Q 42 28, 52 26" stroke="#7c3aed" stroke-width="0.45" opacity="0.15" fill="none"/>
  <path d="M 22 8 Q 14 16, 10 28" stroke="#7c3aed" stroke-width="0.3" opacity="0.06" fill="none"/>
  <path d="M 52 26 Q 50 38, 46 48" stroke="#7c3aed" stroke-width="0.25" opacity="0.05" fill="none"/>
  <line x1="29" y1="29" x2="52" y2="11" stroke="url(#sweep)" stroke-width="1.4"/>
  <circle cx="52" cy="11" r="4" fill="#e11d48" opacity="0.06"/>
  <circle cx="52" cy="11" r="2" fill="#e11d48" opacity="0.8"/>
</svg>
